<?xml version="1.0" encoding="utf-8"?>
<!-- Generator: Adobe Illustrator 23.0.1, SVG Export Plug-In . SVG Version: 6.00 Build 0)  -->
<svg version="1.1" id="Layer_1" xmlns="http://www.w3.org/2000/svg" xmlns:xlink="http://www.w3.org/1999/xlink" x="0px" y="0px"
	 viewBox="0 0 512 512" style="enable-background:new 0 0 512 512;" xml:space="preserve">
<style type="text/css">
	.st0{fill:#010101;}
</style>
<title>01</title>
<g>
	<path class="st0" d="M408.2,386.4c-30,0-54.3,24.3-54.4,54.4c0,30,24.3,54.3,54.4,54.3c30,0,54.3-24.3,54.3-54.3
		C462.5,410.8,438.2,386.4,408.2,386.4z M408.2,473.4c-18,0-32.6-14.6-32.6-32.6s14.6-32.6,32.6-32.6v0c18,0,32.6,14.6,32.6,32.6
		C440.8,458.8,426.2,473.4,408.2,473.4z"/>
	<path class="st0" d="M190.8,386.4c-30,0-54.4,24.3-54.4,54.4s24.3,54.3,54.4,54.3c30,0,54.3-24.3,54.3-54.3
		C245.1,410.8,220.8,386.4,190.8,386.4z M190.8,473.4c-18,0-32.6-14.6-32.6-32.6c0-18,14.6-32.6,32.6-32.6v0
		c18,0,32.6,14.6,32.6,32.6C223.4,458.8,208.8,473.4,190.8,473.4z"/>
	<path class="st0" d="M495.1,82.1H104L92.7,25.6c-1-5.1-5.5-8.7-10.6-8.7H16.9c-6,0-10.9,4.9-10.9,10.9c0,6,4.9,10.9,10.9,10.9h56.3
		l53,264.9c7.2,35.5,38.4,61.1,74.6,61.2h250.9v0c6,0,10.9-4.9,10.9-10.9c0-6-4.9-10.9-10.9-10.9H200.8c-18,0-34.3-8.9-44.3-22.9
		l318.3-42.4c4.9-0.6,8.7-4.5,9.4-9.4l21.7-173.9c0.1-0.5,0.1-0.9,0.1-1.4C506,86.9,501.1,82.1,495.1,82.1z M463.7,257.2
		l-316.2,42.2c0,0,0-0.1,0-0.1l-39.1-195.4h374.4L463.7,257.2z"/>
	<path class="st0" d="M180.1,268.7c0.9,5.2,5.4,9.1,10.7,9.1c0.6,0,1.2,0,1.8-0.1c0,0,0,0,0,0c5.9-1,9.9-6.6,8.9-12.5l-21.7-130.4
		c0-0.2,0-0.3-0.1-0.5c-1.1-5.9-6.8-9.8-12.7-8.7c-5.9,1.1-9.8,6.8-8.7,12.7L180.1,268.7z"/>
	<path class="st0" d="M234.3,257c0.5,5.6,5.2,9.9,10.8,9.9c0.3,0,0.7,0,1,0c6-0.5,10.4-5.8,9.8-11.8l-10.9-119.6
		c-0.6-6-5.8-10.4-11.8-9.8c-6,0.6-10.4,5.8-9.8,11.8L234.3,257z"/>
	<path class="st0" d="M299.5,256C299.5,256,299.5,256,299.5,256c6,0,10.9-4.9,10.9-10.9V136.4c0-6-4.9-10.9-10.9-10.9
		c-6,0-10.9,4.9-10.9,10.9v108.7c0,0,0,0,0,0C288.6,251.1,293.5,256,299.5,256z"/>
	<path class="st0" d="M352.6,245.1c0.4,0,0.8,0.1,1.2,0.1c5.5,0,10.2-4.2,10.8-9.7l10.9-97.8c0.7-6-3.6-11.3-9.6-12
		c-5.9-0.6-11.3,3.7-12,9.6L343,233.1C342.4,239,346.7,244.4,352.6,245.1z"/>
	<path class="st0" d="M408.2,234.3c5,0,9.3-3.4,10.5-8.2l21.7-87c1.5-5.8-2.1-11.7-7.9-13.2c-5.8-1.5-11.7,2.1-13.2,7.9l-21.7,87
		c-0.2,0.8-0.3,1.7-0.3,2.6C397.3,229.4,402.2,234.2,408.2,234.3z"/>
</g>
</svg>
