<?xml version="1.0" encoding="utf-8"?>
<!-- Svg Vector Icons : http://www.onlinewebfonts.com/icon -->
<!DOCTYPE svg PUBLIC "-//W3C//DTD SVG 1.1//EN" "http://www.w3.org/Graphics/SVG/1.1/DTD/svg11.dtd">
<svg version="1.1" xmlns="http://www.w3.org/2000/svg" xmlns:xlink="http://www.w3.org/1999/xlink" x="0px" y="0px" viewBox="0 0 1000 1000" enable-background="new 0 0 1000 1000" xml:space="preserve">
<metadata> Svg Vector Icons : http://www.onlinewebfonts.com/icon </metadata>
<g><g transform="translate(0.000000,480.000000) scale(0.100000,-0.100000)"><path d="M2225.9,3943.4l-1056.2-462.8l-533.9-7.7l-535.8-5.8l9.6-868c7.7-939.1,19.2-1065.8,138.3-1595.9c272.7-1217.6,956.4-2287.3,1937.7-3024.7c186.3-140.2,418.7-290,434-280.4c17.3,9.6,157.5,243.9,149.8,247.7c-3.8,1.9-92.2,59.5-197.8,130.6C1834.2-1430,1229.2-721.4,870.1,69.8C524.4,838,380.4,1644.6,395.8,2748.8l5.8,422.5l422.5,9.6l422.5,9.6L2279.7,3638l1033.2,447.5l1021.7-435.9c562.7-240.1,1033.2-435.9,1046.6-437.9c13.4-1.9,49.9,57.6,80.7,128.7l55.7,130.6l-61.4,28.8C5206.5,3613,3320.6,4410,3303.3,4408.1C3291.8,4406.2,2807.8,4196.8,2225.9,3943.4z"/><path d="M2446.8,2944.7l-835.4-387.9L1306,2551l-305.3-5.8l13.4-397.5c25-764.3,136.4-1250.2,414.8-1818.7c357.2-729.8,1056.2-1461.5,1780.2-1864.7l101.8-55.7l90.3,48c163.2,84.5,528.1,338,716.3,495.5c182.4,151.7,614.5,587.7,614.5,618.4c0,9.6-49.9,55.7-109.5,103.7l-109.5,86.4l-195.9-207.4c-109.5-113.3-284.2-280.4-391.8-368.7c-218.9-180.5-566.5-420.6-610.7-420.6c-44.2,0-374.5,226.6-580,399.4C2037.7-254.7,1557.6,528.8,1392.5,1348.8c-46.1,230.5-84.5,628-74.9,785.5l5.8,115.2l192,9.6l192,9.6l804.7,370.6l802.7,370.6l656.8-297.7l654.9-297.7l63.4,136.3c34.6,74.9,59.5,138.3,57.6,140.2c-21.1,19.2-1423,643.3-1442.2,641.4C3291.8,3332.6,2905.8,3157.9,2446.8,2944.7z"/><path d="M6028.4,2846.8c-336.1-53.8-572.3-167.1-777.8-374.5c-174.8-174.8-268.9-345.7-339.9-612.6c-49.9-180.5-51.8-205.5-51.8-733.6l-1.9-547.3l69.1-259.3c109.5-405.2,247.7-697.1,445.5-941l90.3-113.3v-192.1c0-174.8-3.8-190.1-34.6-180.5c-26.9,5.8-69.1-42.3-184.4-218.9c-82.6-124.8-169-247.7-192-272.7c-57.6-63.4-197.8-130.6-626.1-297.7c-205.5-80.7-447.5-178.6-537.7-217c-581.9-247.7-862.3-564.6-983.3-1110c-34.6-149.8-40.3-265-48-877.6l-9.6-706.7h155.6h155.6v649.1c0,355.3,9.6,708.7,19.2,781.6c48,324.6,167.1,556.9,376.4,725.9c140.2,115.2,443.6,265,821.9,407.1c157.5,59.6,382.2,151.7,499.3,203.6c117.1,53.8,226.6,101.8,242,105.6c17.3,5.8,138.3-101.8,324.6-288.1l295.7-295.8l305.4,151.7c167.1,82.6,316.9,151.7,332.2,151.7c15.4,0,169-69.1,339.9-155.5l309.2-155.6l303.4,303.4l303.4,303.4l188.2-90.3c103.7-48,364.9-155.5,581.9-240c217-82.6,455.2-182.5,528.1-218.9c280.4-142.1,451.3-307.3,556.9-539.6c97.9-213.2,109.5-315,119.1-1083.1l9.6-716.3h144H9900l-5.8,754.7c-9.6,852.7-15.4,904.5-170.9,1223.3c-65.3,134.4-111.4,194-255.4,336.1c-215.1,213.2-384.1,305.4-966,530.1c-218.9,84.5-482,194-585.7,242l-186.3,86.4l-176.7,267c-121,184.4-188.2,266.9-211.3,266.9c-32.7,0-36.5,17.3-36.5,194v194l88.3,97.9c228.5,255.4,428.3,750.9,508.9,1267.5c28.8,194,11.5,927.6-28.8,1117.7c-67.2,316.9-167.1,512.8-364.9,712.5C7190.3,2800.7,6627.6,2939,6028.4,2846.8z M6873.4,2520.3c457.1-124.8,676-412.9,729.8-956.4l13.4-128.7l-238.1-119.1L7142.3,1199l-768.2,307.3l-768.2,307.3l-205.5-103.7c-113.3-57.6-211.3-103.7-217-103.7c-19.2,0-9.6,107.5,19.2,220.8c109.5,422.5,378.3,653,845,725.9C6183.9,2574.1,6760.1,2551,6873.4,2520.3z M6404.8,1170.2l752.8-299.6l218.9,107.5c119.1,61.5,220.8,109.5,226.6,109.5s9.6-82.6,9.6-184.4c0-574.2-320.7-1338.5-610.7-1453.8c-94.1-38.4-320.7-82.6-493.6-99.9c-224.7-21.1-620.3,38.4-789.3,117.2c-138.3,65.3-338,393.7-445.5,737.4c-90.3,284.2-119.1,472.4-119.1,775.9v270.8l217,109.5c117.1,59.5,230.5,109.5,247.8,109.5C5638.6,1471.7,5991.9,1337.3,6404.8,1170.2z M5995.8-919.2c274.6-48,797-26.9,971.7,40.3c26.9,9.6,30.7-7.7,30.7-134.4c0-169,38.4-144-318.8-203.6c-286.2-48-338-46.1-651,5.8l-249.6,44.2l-5.8,149.8c-5.8,134.4-1.9,149.8,26.9,138.3C5817.1-884.6,5905.5-903.8,5995.8-919.2z M5995.8-1508.8l387.9-61.4l389.9,61.4c213.2,34.6,403.3,67.2,420.6,73c23.1,7.7,55.7-26.9,119.1-121c49.9-71,88.3-138.3,88.3-149.8c0-11.5-97.9-117.1-217-236.2l-218.9-218.9l-295.7,147.9L6374.1-1866l-290-144l-290-144l-222.8,222.8l-224.7,224.7l49.9,76.8c109.5,163.2,146,203.6,176.7,194C5590.5-1441.6,5780.7-1474.2,5995.8-1508.8z"/><path d="M3157.3,2095.9v-144H3311h153.6v144v144H3311h-153.6V2095.9z"/><path d="M3157.3,1481.3v-144H3311h153.6v144v144H3311h-153.6V1481.3z"/><path d="M3157.3,866.8v-144H3311h153.6v144v144H3311h-153.6V866.8z"/><path d="M6230-2810.8v-153.6h153.6h153.6v153.6v153.6h-153.6H6230V-2810.8z"/><path d="M6230-3425.4V-3579h153.6h153.6v153.6v153.6h-153.6H6230V-3425.4z"/><path d="M4079.2-4347.2v-460.9h153.6h153.6v460.9v460.9h-153.6h-153.6V-4347.2z"/><path d="M8380.9-4347.2v-460.9h153.6h153.6v460.9v460.9h-153.6h-153.6V-4347.2z"/></g></g>
</svg>